<svg viewBox="0 0 1142 614" fill="none" xmlns="http://www.w3.org/2000/svg">
  <circle cx="967" cy="414.34" r="174.5" fill="#4292D9"/>
  <path d="M891.788 424.036C891.265 424.055 890.855 423.915 890.556 423.616C890.257 423.317 890.108 422.935 890.108 422.468C890.108 422.113 890.22 421.805 890.444 421.544C890.649 421.264 890.957 421.115 891.368 421.096L892.208 421.04C893.029 420.984 893.645 420.732 894.056 420.284C894.485 419.817 894.7 419.155 894.7 418.296V405.696C894.7 405.099 894.849 404.651 895.148 404.352C895.465 404.035 895.913 403.876 896.492 403.876C897.071 403.876 897.509 404.035 897.808 404.352C898.125 404.651 898.284 405.099 898.284 405.696V418.268C898.284 419.444 898.069 420.443 897.64 421.264C897.229 422.085 896.613 422.729 895.792 423.196C894.971 423.644 893.953 423.905 892.74 423.98L891.788 424.036ZM906.726 424.12C905.737 424.12 904.85 423.933 904.066 423.56C903.301 423.168 902.694 422.645 902.246 421.992C901.817 421.339 901.602 420.601 901.602 419.78C901.602 418.772 901.864 417.979 902.386 417.4C902.909 416.803 903.758 416.373 904.934 416.112C906.11 415.851 907.688 415.72 909.666 415.72H911.066V417.736H909.694C908.537 417.736 907.613 417.792 906.922 417.904C906.232 418.016 905.737 418.212 905.438 418.492C905.158 418.753 905.018 419.127 905.018 419.612C905.018 420.228 905.233 420.732 905.662 421.124C906.092 421.516 906.689 421.712 907.454 421.712C908.07 421.712 908.612 421.572 909.078 421.292C909.564 420.993 909.946 420.592 910.226 420.088C910.506 419.584 910.646 419.005 910.646 418.352V415.132C910.646 414.199 910.441 413.527 910.03 413.116C909.62 412.705 908.929 412.5 907.958 412.5C907.417 412.5 906.829 412.565 906.194 412.696C905.578 412.827 904.925 413.051 904.234 413.368C903.88 413.536 903.562 413.583 903.282 413.508C903.021 413.433 902.816 413.284 902.666 413.06C902.517 412.817 902.442 412.556 902.442 412.276C902.442 411.996 902.517 411.725 902.666 411.464C902.816 411.184 903.068 410.979 903.422 410.848C904.281 410.493 905.102 410.241 905.886 410.092C906.689 409.943 907.417 409.868 908.07 409.868C909.414 409.868 910.516 410.073 911.374 410.484C912.252 410.895 912.905 411.52 913.334 412.36C913.764 413.181 913.978 414.245 913.978 415.552V422.272C913.978 422.851 913.838 423.299 913.558 423.616C913.278 423.915 912.877 424.064 912.354 424.064C911.832 424.064 911.421 423.915 911.122 423.616C910.842 423.299 910.702 422.851 910.702 422.272V420.928H910.926C910.796 421.581 910.534 422.151 910.142 422.636C909.769 423.103 909.293 423.467 908.714 423.728C908.136 423.989 907.473 424.12 906.726 424.12ZM922.938 424.064C922.472 424.064 922.061 423.943 921.706 423.7C921.37 423.457 921.09 423.084 920.866 422.58L916.414 412.248C916.246 411.837 916.181 411.455 916.218 411.1C916.274 410.745 916.442 410.465 916.722 410.26C917.021 410.036 917.422 409.924 917.926 409.924C918.356 409.924 918.701 410.027 918.962 410.232C919.224 410.419 919.457 410.783 919.662 411.324L923.442 420.76H922.602L926.494 411.296C926.7 410.773 926.933 410.419 927.194 410.232C927.474 410.027 927.848 409.924 928.314 409.924C928.725 409.924 929.052 410.036 929.294 410.26C929.537 410.465 929.686 410.745 929.742 411.1C929.798 411.436 929.733 411.809 929.546 412.22L925.01 422.58C924.805 423.084 924.525 423.457 924.17 423.7C923.834 423.943 923.424 424.064 922.938 424.064ZM936.394 424.12C935.405 424.12 934.518 423.933 933.734 423.56C932.969 423.168 932.362 422.645 931.914 421.992C931.485 421.339 931.27 420.601 931.27 419.78C931.27 418.772 931.532 417.979 932.054 417.4C932.577 416.803 933.426 416.373 934.602 416.112C935.778 415.851 937.356 415.72 939.334 415.72H940.734V417.736H939.362C938.205 417.736 937.281 417.792 936.59 417.904C935.9 418.016 935.405 418.212 935.106 418.492C934.826 418.753 934.686 419.127 934.686 419.612C934.686 420.228 934.901 420.732 935.33 421.124C935.76 421.516 936.357 421.712 937.122 421.712C937.738 421.712 938.28 421.572 938.746 421.292C939.232 420.993 939.614 420.592 939.894 420.088C940.174 419.584 940.314 419.005 940.314 418.352V415.132C940.314 414.199 940.109 413.527 939.698 413.116C939.288 412.705 938.597 412.5 937.626 412.5C937.085 412.5 936.497 412.565 935.862 412.696C935.246 412.827 934.593 413.051 933.902 413.368C933.548 413.536 933.23 413.583 932.95 413.508C932.689 413.433 932.484 413.284 932.334 413.06C932.185 412.817 932.11 412.556 932.11 412.276C932.11 411.996 932.185 411.725 932.334 411.464C932.484 411.184 932.736 410.979 933.09 410.848C933.949 410.493 934.77 410.241 935.554 410.092C936.357 409.943 937.085 409.868 937.738 409.868C939.082 409.868 940.184 410.073 941.042 410.484C941.92 410.895 942.573 411.52 943.002 412.36C943.432 413.181 943.646 414.245 943.646 415.552V422.272C943.646 422.851 943.506 423.299 943.226 423.616C942.946 423.915 942.545 424.064 942.022 424.064C941.5 424.064 941.089 423.915 940.79 423.616C940.51 423.299 940.37 422.851 940.37 422.272V420.928H940.594C940.464 421.581 940.202 422.151 939.81 422.636C939.437 423.103 938.961 423.467 938.382 423.728C937.804 423.989 937.141 424.12 936.394 424.12ZM954.339 424.12C953.518 424.12 952.696 424.055 951.875 423.924C951.054 423.812 950.279 423.635 949.551 423.392C948.823 423.131 948.17 422.813 947.591 422.44C947.255 422.216 947.022 421.945 946.891 421.628C946.76 421.311 946.714 421.003 946.751 420.704C946.807 420.387 946.928 420.116 947.115 419.892C947.32 419.649 947.572 419.5 947.871 419.444C948.17 419.388 948.496 419.472 948.851 419.696C949.672 420.181 950.54 420.536 951.455 420.76C952.37 420.984 953.331 421.096 954.339 421.096C955.814 421.096 956.887 420.853 957.559 420.368C958.231 419.864 958.567 419.22 958.567 418.436C958.567 417.783 958.324 417.269 957.839 416.896C957.372 416.523 956.56 416.215 955.403 415.972L952.323 415.328C950.55 414.955 949.224 414.329 948.347 413.452C947.488 412.556 947.059 411.38 947.059 409.924C947.059 409.009 947.246 408.179 947.619 407.432C947.992 406.685 948.515 406.041 949.187 405.5C949.878 404.959 950.69 404.548 951.623 404.268C952.575 403.969 953.62 403.82 954.759 403.82C955.879 403.82 956.943 403.96 957.951 404.24C958.959 404.52 959.864 404.931 960.667 405.472C960.966 405.677 961.162 405.929 961.255 406.228C961.367 406.527 961.395 406.825 961.339 407.124C961.283 407.404 961.152 407.647 960.947 407.852C960.742 408.057 960.48 408.179 960.163 408.216C959.864 408.253 959.519 408.16 959.127 407.936C958.436 407.544 957.736 407.264 957.027 407.096C956.318 406.928 955.552 406.844 954.731 406.844C953.872 406.844 953.135 406.965 952.519 407.208C951.903 407.451 951.427 407.796 951.091 408.244C950.774 408.673 950.615 409.187 950.615 409.784C950.615 410.456 950.839 410.997 951.287 411.408C951.735 411.8 952.5 412.108 953.583 412.332L956.635 412.976C958.483 413.368 959.855 413.984 960.751 414.824C961.666 415.664 962.123 416.784 962.123 418.184C962.123 419.08 961.936 419.892 961.563 420.62C961.208 421.348 960.686 421.973 959.995 422.496C959.323 423.019 958.511 423.42 957.559 423.7C956.607 423.98 955.534 424.12 954.339 424.12ZM971.191 424.12C969.754 424.12 968.503 423.831 967.439 423.252C966.375 422.655 965.554 421.815 964.975 420.732C964.396 419.649 964.107 418.38 964.107 416.924C964.107 415.823 964.266 414.843 964.583 413.984C964.919 413.107 965.395 412.369 966.011 411.772C966.627 411.156 967.374 410.689 968.251 410.372C969.128 410.036 970.108 409.868 971.191 409.868C971.807 409.868 972.47 409.952 973.179 410.12C973.907 410.288 974.588 410.568 975.223 410.96C975.522 411.147 975.718 411.371 975.811 411.632C975.904 411.893 975.923 412.164 975.867 412.444C975.811 412.705 975.69 412.939 975.503 413.144C975.335 413.331 975.12 413.452 974.859 413.508C974.598 413.545 974.308 413.48 973.991 413.312C973.58 413.069 973.16 412.892 972.731 412.78C972.302 412.649 971.891 412.584 971.499 412.584C970.883 412.584 970.342 412.687 969.875 412.892C969.408 413.079 969.007 413.359 968.671 413.732C968.354 414.087 968.111 414.535 967.943 415.076C967.775 415.617 967.691 416.243 967.691 416.952C967.691 418.333 968.018 419.425 968.671 420.228C969.343 421.012 970.286 421.404 971.499 421.404C971.891 421.404 972.292 421.348 972.703 421.236C973.132 421.124 973.562 420.947 973.991 420.704C974.308 420.536 974.588 420.48 974.831 420.536C975.092 420.592 975.307 420.723 975.475 420.928C975.643 421.115 975.746 421.348 975.783 421.628C975.82 421.889 975.783 422.151 975.671 422.412C975.578 422.673 975.391 422.888 975.111 423.056C974.495 423.429 973.842 423.7 973.151 423.868C972.46 424.036 971.807 424.12 971.191 424.12ZM979.862 424.064C979.283 424.064 978.835 423.915 978.518 423.616C978.219 423.299 978.07 422.851 978.07 422.272V411.688C978.07 411.109 978.219 410.671 978.518 410.372C978.817 410.073 979.237 409.924 979.778 409.924C980.319 409.924 980.739 410.073 981.038 410.372C981.337 410.671 981.486 411.109 981.486 411.688V413.452H981.206C981.467 412.332 981.981 411.483 982.746 410.904C983.511 410.325 984.529 409.98 985.798 409.868C986.19 409.831 986.498 409.933 986.722 410.176C986.965 410.4 987.105 410.755 987.142 411.24C987.179 411.707 987.067 412.089 986.806 412.388C986.563 412.668 986.19 412.836 985.686 412.892L985.07 412.948C983.931 413.06 983.073 413.415 982.494 414.012C981.915 414.591 981.626 415.412 981.626 416.476V422.272C981.626 422.851 981.477 423.299 981.178 423.616C980.879 423.915 980.441 424.064 979.862 424.064ZM990.771 424.036C990.211 424.036 989.782 423.868 989.483 423.532C989.184 423.196 989.035 422.729 989.035 422.132V411.856C989.035 411.24 989.184 410.773 989.483 410.456C989.782 410.12 990.211 409.952 990.771 409.952C991.331 409.952 991.76 410.12 992.059 410.456C992.376 410.773 992.535 411.24 992.535 411.856V422.132C992.535 422.729 992.386 423.196 992.087 423.532C991.788 423.868 991.35 424.036 990.771 424.036ZM990.771 407.348C990.118 407.348 989.604 407.189 989.231 406.872C988.876 406.536 988.699 406.079 988.699 405.5C988.699 404.903 988.876 404.445 989.231 404.128C989.604 403.811 990.118 403.652 990.771 403.652C991.443 403.652 991.956 403.811 992.311 404.128C992.666 404.445 992.843 404.903 992.843 405.5C992.843 406.079 992.666 406.536 992.311 406.872C991.956 407.189 991.443 407.348 990.771 407.348ZM997.908 429.104C997.348 429.104 996.918 428.955 996.62 428.656C996.321 428.357 996.172 427.919 996.172 427.34V411.688C996.172 411.109 996.321 410.671 996.62 410.372C996.918 410.073 997.338 409.924 997.88 409.924C998.44 409.924 998.869 410.073 999.168 410.372C999.466 410.671 999.616 411.109 999.616 411.688V413.872L999.308 413.032C999.588 412.08 1000.16 411.315 1001.02 410.736C1001.89 410.157 1002.91 409.868 1004.07 409.868C1005.26 409.868 1006.31 410.157 1007.2 410.736C1008.12 411.315 1008.83 412.136 1009.33 413.2C1009.84 414.245 1010.09 415.505 1010.09 416.98C1010.09 418.436 1009.84 419.705 1009.33 420.788C1008.83 421.852 1008.13 422.673 1007.23 423.252C1006.34 423.831 1005.28 424.12 1004.07 424.12C1002.93 424.12 1001.93 423.84 1001.07 423.28C1000.21 422.701 999.634 421.955 999.336 421.04H999.672V427.34C999.672 427.919 999.513 428.357 999.196 428.656C998.897 428.955 998.468 429.104 997.908 429.104ZM1003.09 421.46C1003.78 421.46 1004.38 421.292 1004.91 420.956C1005.43 420.62 1005.83 420.125 1006.11 419.472C1006.41 418.8 1006.56 417.969 1006.56 416.98C1006.56 415.487 1006.24 414.376 1005.61 413.648C1004.97 412.901 1004.13 412.528 1003.09 412.528C1002.4 412.528 1001.79 412.696 1001.27 413.032C1000.74 413.349 1000.33 413.844 1000.04 414.516C999.756 415.169 999.616 415.991 999.616 416.98C999.616 418.455 999.933 419.575 1000.57 420.34C1001.2 421.087 1002.04 421.46 1003.09 421.46ZM1019.1 424.12C1017.88 424.12 1016.87 423.915 1016.04 423.504C1015.24 423.093 1014.64 422.496 1014.25 421.712C1013.86 420.909 1013.66 419.92 1013.66 418.744V412.78H1012.21C1011.76 412.78 1011.41 412.668 1011.17 412.444C1010.93 412.201 1010.81 411.875 1010.81 411.464C1010.81 411.035 1010.93 410.708 1011.17 410.484C1011.41 410.26 1011.76 410.148 1012.21 410.148H1013.66V407.6C1013.66 407.021 1013.81 406.583 1014.11 406.284C1014.43 405.985 1014.87 405.836 1015.43 405.836C1015.99 405.836 1016.42 405.985 1016.72 406.284C1017.01 406.583 1017.16 407.021 1017.16 407.6V410.148H1020.13C1020.58 410.148 1020.93 410.26 1021.17 410.484C1021.41 410.708 1021.53 411.035 1021.53 411.464C1021.53 411.875 1021.41 412.201 1021.17 412.444C1020.93 412.668 1020.58 412.78 1020.13 412.78H1017.16V418.548C1017.16 419.444 1017.36 420.116 1017.75 420.564C1018.14 421.012 1018.78 421.236 1019.66 421.236C1019.97 421.236 1020.25 421.208 1020.5 421.152C1020.74 421.096 1020.95 421.059 1021.14 421.04C1021.36 421.021 1021.55 421.096 1021.7 421.264C1021.85 421.413 1021.92 421.731 1021.92 422.216C1021.92 422.589 1021.86 422.925 1021.73 423.224C1021.62 423.504 1021.4 423.7 1021.08 423.812C1020.84 423.887 1020.52 423.952 1020.13 424.008C1019.74 424.083 1019.39 424.12 1019.1 424.12ZM1027.83 428.404C1026.67 426.575 1025.83 424.652 1025.31 422.636C1024.8 420.601 1024.55 418.548 1024.55 416.476C1024.55 415.095 1024.66 413.723 1024.89 412.36C1025.11 410.997 1025.46 409.663 1025.95 408.356C1026.44 407.031 1027.06 405.761 1027.83 404.548C1028.03 404.212 1028.3 404.007 1028.64 403.932C1028.99 403.839 1029.32 403.857 1029.62 403.988C1029.94 404.119 1030.17 404.361 1030.32 404.716C1030.47 405.052 1030.45 405.481 1030.26 406.004C1029.81 407.199 1029.44 408.375 1029.14 409.532C1028.86 410.671 1028.65 411.809 1028.5 412.948C1028.37 414.087 1028.3 415.263 1028.3 416.476C1028.3 417.689 1028.38 418.865 1028.53 420.004C1028.68 421.143 1028.9 422.281 1029.2 423.42C1029.5 424.559 1029.85 425.735 1030.26 426.948C1030.45 427.471 1030.47 427.9 1030.32 428.236C1030.17 428.591 1029.94 428.833 1029.62 428.964C1029.32 429.095 1028.99 429.113 1028.64 429.02C1028.3 428.945 1028.03 428.74 1027.83 428.404ZM1036.85 428.404C1036.65 428.74 1036.37 428.945 1036.01 429.02C1035.68 429.113 1035.35 429.085 1035.03 428.936C1034.72 428.805 1034.48 428.572 1034.33 428.236C1034.2 427.9 1034.23 427.471 1034.42 426.948C1034.88 425.735 1035.26 424.559 1035.54 423.42C1035.82 422.281 1036.02 421.143 1036.15 420.004C1036.3 418.865 1036.38 417.689 1036.38 416.476C1036.38 415.263 1036.3 414.087 1036.15 412.948C1036 411.809 1035.78 410.671 1035.48 409.532C1035.2 408.393 1034.85 407.217 1034.42 406.004C1034.23 405.481 1034.21 405.052 1034.36 404.716C1034.51 404.361 1034.74 404.119 1035.06 403.988C1035.38 403.857 1035.71 403.839 1036.04 403.932C1036.38 404.007 1036.65 404.212 1036.85 404.548C1037.99 406.359 1038.82 408.281 1039.35 410.316C1039.87 412.351 1040.13 414.404 1040.13 416.476C1040.13 417.857 1040.01 419.229 1039.77 420.592C1039.54 421.955 1039.19 423.289 1038.7 424.596C1038.24 425.921 1037.62 427.191 1036.85 428.404Z" fill="#141414"/>
  <circle cx="824.5" cy="99.8397" r="99" fill="#E6E6E6"/>
  <circle cx="725.5" cy="553.84" r="60" fill="#E6E6E6"/>
  <circle cx="539" cy="314.34" r="174.5" fill="#1F1F1F"/>
  <path d="M497.84 324.12C495.787 324.12 494.023 323.709 492.548 322.888C491.092 322.048 489.972 320.872 489.188 319.36C488.404 317.829 488.012 316.028 488.012 313.956C488.012 312.406 488.236 311.016 488.684 309.784C489.132 308.533 489.776 307.469 490.616 306.592C491.456 305.696 492.483 305.014 493.696 304.548C494.928 304.062 496.309 303.82 497.84 303.82C498.867 303.82 499.875 303.95 500.864 304.212C501.853 304.473 502.721 304.846 503.468 305.332C503.86 305.574 504.121 305.873 504.252 306.228C504.383 306.564 504.411 306.9 504.336 307.236C504.261 307.553 504.103 307.824 503.86 308.048C503.636 308.272 503.347 308.402 502.992 308.44C502.656 308.458 502.283 308.337 501.872 308.076C501.293 307.702 500.668 307.432 499.996 307.264C499.324 307.096 498.643 307.012 497.952 307.012C496.627 307.012 495.507 307.282 494.592 307.824C493.677 308.365 492.987 309.149 492.52 310.176C492.053 311.202 491.82 312.462 491.82 313.956C491.82 315.43 492.053 316.69 492.52 317.736C492.987 318.781 493.677 319.574 494.592 320.116C495.507 320.657 496.627 320.928 497.952 320.928C498.661 320.928 499.361 320.844 500.052 320.676C500.743 320.489 501.396 320.209 502.012 319.836C502.423 319.593 502.787 319.49 503.104 319.528C503.44 319.546 503.72 319.658 503.944 319.864C504.168 320.069 504.317 320.33 504.392 320.648C504.467 320.946 504.448 321.264 504.336 321.6C504.224 321.917 504 322.197 503.664 322.44C502.917 322.981 502.021 323.401 500.976 323.7C499.949 323.98 498.904 324.12 497.84 324.12ZM514.081 324.12C513.26 324.12 512.438 324.054 511.617 323.924C510.796 323.812 510.021 323.634 509.293 323.392C508.565 323.13 507.912 322.813 507.333 322.44C506.997 322.216 506.764 321.945 506.633 321.628C506.502 321.31 506.456 321.002 506.493 320.704C506.549 320.386 506.67 320.116 506.857 319.892C507.062 319.649 507.314 319.5 507.613 319.444C507.912 319.388 508.238 319.472 508.593 319.696C509.414 320.181 510.282 320.536 511.197 320.76C512.112 320.984 513.073 321.096 514.081 321.096C515.556 321.096 516.629 320.853 517.301 320.368C517.973 319.864 518.309 319.22 518.309 318.436C518.309 317.782 518.066 317.269 517.581 316.896C517.114 316.522 516.302 316.214 515.145 315.972L512.065 315.328C510.292 314.954 508.966 314.329 508.089 313.452C507.23 312.556 506.801 311.38 506.801 309.924C506.801 309.009 506.988 308.178 507.361 307.432C507.734 306.685 508.257 306.041 508.929 305.5C509.62 304.958 510.432 304.548 511.365 304.268C512.317 303.969 513.362 303.82 514.501 303.82C515.621 303.82 516.685 303.96 517.693 304.24C518.701 304.52 519.606 304.93 520.409 305.472C520.708 305.677 520.904 305.929 520.997 306.228C521.109 306.526 521.137 306.825 521.081 307.124C521.025 307.404 520.894 307.646 520.689 307.852C520.484 308.057 520.222 308.178 519.905 308.216C519.606 308.253 519.261 308.16 518.869 307.936C518.178 307.544 517.478 307.264 516.769 307.096C516.06 306.928 515.294 306.844 514.473 306.844C513.614 306.844 512.877 306.965 512.261 307.208C511.645 307.45 511.169 307.796 510.833 308.244C510.516 308.673 510.357 309.186 510.357 309.784C510.357 310.456 510.581 310.997 511.029 311.408C511.477 311.8 512.242 312.108 513.325 312.332L516.377 312.976C518.225 313.368 519.597 313.984 520.493 314.824C521.408 315.664 521.865 316.784 521.865 318.184C521.865 319.08 521.678 319.892 521.305 320.62C520.95 321.348 520.428 321.973 519.737 322.496C519.065 323.018 518.253 323.42 517.301 323.7C516.349 323.98 515.276 324.12 514.081 324.12ZM531.745 324.12C530.924 324.12 530.102 324.054 529.281 323.924C528.46 323.812 527.685 323.634 526.957 323.392C526.229 323.13 525.576 322.813 524.997 322.44C524.661 322.216 524.428 321.945 524.297 321.628C524.166 321.31 524.12 321.002 524.157 320.704C524.213 320.386 524.334 320.116 524.521 319.892C524.726 319.649 524.978 319.5 525.277 319.444C525.576 319.388 525.902 319.472 526.257 319.696C527.078 320.181 527.946 320.536 528.861 320.76C529.776 320.984 530.737 321.096 531.745 321.096C533.22 321.096 534.293 320.853 534.965 320.368C535.637 319.864 535.973 319.22 535.973 318.436C535.973 317.782 535.73 317.269 535.245 316.896C534.778 316.522 533.966 316.214 532.809 315.972L529.729 315.328C527.956 314.954 526.63 314.329 525.753 313.452C524.894 312.556 524.465 311.38 524.465 309.924C524.465 309.009 524.652 308.178 525.025 307.432C525.398 306.685 525.921 306.041 526.593 305.5C527.284 304.958 528.096 304.548 529.029 304.268C529.981 303.969 531.026 303.82 532.165 303.82C533.285 303.82 534.349 303.96 535.357 304.24C536.365 304.52 537.27 304.93 538.073 305.472C538.372 305.677 538.568 305.929 538.661 306.228C538.773 306.526 538.801 306.825 538.745 307.124C538.689 307.404 538.558 307.646 538.353 307.852C538.148 308.057 537.886 308.178 537.569 308.216C537.27 308.253 536.925 308.16 536.533 307.936C535.842 307.544 535.142 307.264 534.433 307.096C533.724 306.928 532.958 306.844 532.137 306.844C531.278 306.844 530.541 306.965 529.925 307.208C529.309 307.45 528.833 307.796 528.497 308.244C528.18 308.673 528.021 309.186 528.021 309.784C528.021 310.456 528.245 310.997 528.693 311.408C529.141 311.8 529.906 312.108 530.989 312.332L534.041 312.976C535.889 313.368 537.261 313.984 538.157 314.824C539.072 315.664 539.529 316.784 539.529 318.184C539.529 319.08 539.342 319.892 538.969 320.62C538.614 321.348 538.092 321.973 537.401 322.496C536.729 323.018 535.917 323.42 534.965 323.7C534.013 323.98 532.94 324.12 531.745 324.12ZM555.443 328.88C554.733 328.88 554.117 328.749 553.595 328.488C553.091 328.226 552.708 327.834 552.447 327.312C552.185 326.808 552.055 326.201 552.055 325.492V320.06C552.055 319.294 551.915 318.744 551.635 318.408C551.373 318.053 550.888 317.866 550.179 317.848C549.824 317.829 549.544 317.689 549.339 317.428C549.133 317.166 549.031 316.849 549.031 316.476C549.031 316.102 549.133 315.794 549.339 315.552C549.544 315.29 549.824 315.15 550.179 315.132C550.888 315.094 551.373 314.908 551.635 314.572C551.915 314.217 552.055 313.666 552.055 312.92V307.488C552.055 306.405 552.344 305.574 552.923 304.996C553.52 304.398 554.36 304.1 555.443 304.1H557.431C557.86 304.1 558.205 304.23 558.467 304.492C558.747 304.734 558.887 305.042 558.887 305.416C558.887 305.789 558.775 306.106 558.551 306.368C558.327 306.61 558.028 306.732 557.655 306.732H556.675C556.301 306.732 556.021 306.834 555.835 307.04C555.648 307.245 555.555 307.553 555.555 307.964V313.34C555.555 313.918 555.433 314.45 555.191 314.936C554.948 315.421 554.621 315.813 554.211 316.112C553.819 316.41 553.371 316.56 552.867 316.56V316.448C553.371 316.448 553.819 316.597 554.211 316.896C554.621 317.176 554.948 317.558 555.191 318.044C555.433 318.529 555.555 319.061 555.555 319.64V325.016C555.555 325.426 555.648 325.734 555.835 325.94C556.021 326.145 556.301 326.248 556.675 326.248H557.655C558.028 326.248 558.327 326.369 558.551 326.612C558.775 326.873 558.887 327.19 558.887 327.564C558.887 327.937 558.747 328.245 558.467 328.488C558.205 328.749 557.86 328.88 557.431 328.88H555.443ZM562.488 323.98C561.854 323.98 561.34 323.784 560.948 323.392C560.575 323 560.388 322.496 560.388 321.88C560.388 321.282 560.575 320.797 560.948 320.424C561.34 320.032 561.854 319.836 562.488 319.836C563.142 319.836 563.646 320.032 564 320.424C564.374 320.797 564.56 321.282 564.56 321.88C564.56 322.496 564.374 323 564 323.392C563.646 323.784 563.142 323.98 562.488 323.98ZM569.434 323.98C568.799 323.98 568.286 323.784 567.894 323.392C567.52 323 567.334 322.496 567.334 321.88C567.334 321.282 567.52 320.797 567.894 320.424C568.286 320.032 568.799 319.836 569.434 319.836C570.087 319.836 570.591 320.032 570.946 320.424C571.319 320.797 571.506 321.282 571.506 321.88C571.506 322.496 571.319 323 570.946 323.392C570.591 323.784 570.087 323.98 569.434 323.98ZM576.379 323.98C575.744 323.98 575.231 323.784 574.839 323.392C574.466 323 574.279 322.496 574.279 321.88C574.279 321.282 574.466 320.797 574.839 320.424C575.231 320.032 575.744 319.836 576.379 319.836C577.032 319.836 577.536 320.032 577.891 320.424C578.264 320.797 578.451 321.282 578.451 321.88C578.451 322.496 578.264 323 577.891 323.392C577.536 323.784 577.032 323.98 576.379 323.98ZM581.392 328.88C580.982 328.88 580.636 328.749 580.356 328.488C580.076 328.245 579.936 327.937 579.936 327.564C579.936 327.19 580.048 326.873 580.272 326.612C580.496 326.369 580.795 326.248 581.168 326.248H582.148C582.522 326.248 582.802 326.145 582.988 325.94C583.175 325.734 583.268 325.426 583.268 325.016V319.64C583.268 319.061 583.39 318.529 583.632 318.044C583.875 317.558 584.202 317.166 584.612 316.868C585.023 316.569 585.471 316.42 585.956 316.42V316.532C585.471 316.532 585.023 316.392 584.612 316.112C584.202 315.813 583.875 315.421 583.632 314.936C583.39 314.45 583.268 313.918 583.268 313.34V307.964C583.268 307.553 583.175 307.245 582.988 307.04C582.802 306.834 582.522 306.732 582.148 306.732H581.168C580.795 306.732 580.496 306.61 580.272 306.368C580.048 306.106 579.936 305.789 579.936 305.416C579.936 305.042 580.076 304.734 580.356 304.492C580.636 304.23 580.982 304.1 581.392 304.1H583.38C584.108 304.1 584.724 304.23 585.228 304.492C585.732 304.753 586.115 305.136 586.376 305.64C586.638 306.144 586.768 306.76 586.768 307.488V312.92C586.768 313.666 586.908 314.217 587.188 314.572C587.468 314.908 587.954 315.094 588.644 315.132C589.018 315.15 589.298 315.29 589.484 315.552C589.69 315.813 589.792 316.13 589.792 316.504C589.792 316.858 589.69 317.166 589.484 317.428C589.298 317.689 589.018 317.829 588.644 317.848C587.954 317.866 587.468 318.053 587.188 318.408C586.908 318.744 586.768 319.294 586.768 320.06V325.492C586.768 326.574 586.47 327.405 585.872 327.984C585.294 328.581 584.463 328.88 583.38 328.88H581.392Z" fill="#FDFDFD"/>
  <circle cx="315.5" cy="99.8397" r="60" fill="#E6E6E6"/>
  <circle cx="133" cy="302.34" r="132.5" fill="#292929"/>
  <path d="M82.444 310.356L71.244 305.624C70.3853 305.269 69.956 304.653 69.956 303.776C69.956 303.346 70.0587 302.992 70.264 302.712C70.488 302.413 70.8147 302.17 71.244 301.984L82.444 297.224C82.7613 297.093 83.0413 297.065 83.284 297.14C83.5453 297.214 83.7507 297.354 83.9 297.56C84.0493 297.765 84.1333 297.998 84.152 298.26C84.1707 298.521 84.1147 298.773 83.984 299.016C83.872 299.24 83.6573 299.417 83.34 299.548L71.132 304.672V302.936L83.34 308.06C83.6573 308.19 83.872 308.377 83.984 308.62C84.1147 308.844 84.1707 309.086 84.152 309.348C84.1333 309.59 84.0493 309.814 83.9 310.02C83.7507 310.225 83.5453 310.365 83.284 310.44C83.0413 310.514 82.7613 310.486 82.444 310.356ZM89.2371 312.064C88.6584 312.064 88.2104 311.905 87.8931 311.588C87.5944 311.252 87.4451 310.794 87.4451 310.216V293.724C87.4451 293.126 87.5944 292.669 87.8931 292.352C88.2104 292.034 88.6584 291.876 89.2371 291.876C89.8157 291.876 90.2544 292.034 90.5531 292.352C90.8704 292.669 91.0291 293.126 91.0291 293.724V300.332H101.193V293.724C101.193 293.126 101.342 292.669 101.641 292.352C101.958 292.034 102.406 291.876 102.985 291.876C103.564 291.876 104.002 292.034 104.301 292.352C104.618 292.669 104.777 293.126 104.777 293.724V310.216C104.777 310.794 104.618 311.252 104.301 311.588C104.002 311.905 103.564 312.064 102.985 312.064C102.406 312.064 101.958 311.905 101.641 311.588C101.342 311.252 101.193 310.794 101.193 310.216V303.328H91.0291V310.216C91.0291 310.794 90.8797 311.252 90.5811 311.588C90.2824 311.905 89.8344 312.064 89.2371 312.064ZM115.653 312.064C115.075 312.064 114.627 311.905 114.309 311.588C114.011 311.252 113.861 310.794 113.861 310.216V295.096H108.401C107.916 295.096 107.533 294.965 107.253 294.704C106.992 294.424 106.861 294.05 106.861 293.584C106.861 293.098 106.992 292.734 107.253 292.492C107.533 292.23 107.916 292.1 108.401 292.1H122.905C123.391 292.1 123.764 292.23 124.025 292.492C124.305 292.734 124.445 293.098 124.445 293.584C124.445 294.05 124.305 294.424 124.025 294.704C123.764 294.965 123.391 295.096 122.905 295.096H117.445V310.216C117.445 310.794 117.296 311.252 116.997 311.588C116.699 311.905 116.251 312.064 115.653 312.064ZM128.172 312.064C127.649 312.064 127.248 311.914 126.968 311.616C126.688 311.317 126.548 310.906 126.548 310.384V293.556C126.548 293.014 126.697 292.604 126.996 292.324C127.295 292.025 127.705 291.876 128.228 291.876C128.695 291.876 129.059 291.969 129.32 292.156C129.6 292.324 129.852 292.622 130.076 293.052L136.992 305.848H136.096L143.012 293.052C143.236 292.622 143.479 292.324 143.74 292.156C144.001 291.969 144.365 291.876 144.832 291.876C145.355 291.876 145.756 292.025 146.036 292.324C146.316 292.604 146.456 293.014 146.456 293.556V310.384C146.456 310.906 146.316 311.317 146.036 311.616C145.775 311.914 145.373 312.064 144.832 312.064C144.309 312.064 143.908 311.914 143.628 311.616C143.348 311.317 143.208 310.906 143.208 310.384V297.42H143.824L137.944 308.144C137.757 308.461 137.561 308.694 137.356 308.844C137.151 308.993 136.871 309.068 136.516 309.068C136.161 309.068 135.872 308.993 135.648 308.844C135.424 308.676 135.228 308.442 135.06 308.144L129.124 297.392H129.796V310.384C129.796 310.906 129.656 311.317 129.376 311.616C129.115 311.914 128.713 312.064 128.172 312.064ZM152.621 311.84C152.042 311.84 151.594 311.681 151.277 311.364C150.959 311.028 150.801 310.57 150.801 309.992V293.836C150.801 293.238 150.95 292.79 151.249 292.492C151.566 292.174 152.014 292.016 152.593 292.016C153.171 292.016 153.61 292.174 153.909 292.492C154.226 292.79 154.385 293.238 154.385 293.836V308.788H162.505C163.009 308.788 163.391 308.918 163.653 309.18C163.933 309.441 164.073 309.814 164.073 310.3C164.073 310.785 163.933 311.168 163.653 311.448C163.391 311.709 163.009 311.84 162.505 311.84H152.621ZM174.433 312.652C174.321 313.006 174.143 313.258 173.901 313.408C173.658 313.576 173.387 313.66 173.089 313.66C172.809 313.66 172.547 313.585 172.305 313.436C172.062 313.286 171.894 313.072 171.801 312.792C171.689 312.53 171.689 312.213 171.801 311.84L178.269 291.764C178.381 291.409 178.558 291.148 178.801 290.98C179.062 290.812 179.333 290.737 179.613 290.756C179.893 290.756 180.154 290.83 180.397 290.98C180.639 291.129 180.807 291.334 180.901 291.596C181.013 291.857 181.013 292.174 180.901 292.548L174.433 312.652ZM183.63 310.356C183.313 310.486 183.023 310.514 182.762 310.44C182.519 310.365 182.323 310.225 182.174 310.02C182.025 309.814 181.941 309.59 181.922 309.348C181.903 309.086 181.959 308.844 182.09 308.62C182.221 308.377 182.435 308.19 182.734 308.06L194.942 302.936V304.672L182.734 299.548C182.435 299.417 182.221 299.24 182.09 299.016C181.959 298.773 181.903 298.521 181.922 298.26C181.941 297.998 182.025 297.765 182.174 297.56C182.323 297.354 182.519 297.214 182.762 297.14C183.023 297.065 183.313 297.093 183.63 297.224L194.83 301.984C195.689 302.338 196.118 302.936 196.118 303.776C196.118 304.205 196.006 304.578 195.782 304.896C195.577 305.194 195.259 305.437 194.83 305.624L183.63 310.356Z" fill="#FDFDFD"/>
</svg>
